<svg viewBox="0 0 24 24" fill="none" stroke="currentColor" stroke-width="1.5" stroke-linecap="round" stroke-linejoin="round" xmlns="http://www.w3.org/2000/svg">
  <path d="M5 11.5h3a1.5 1.5 0 0 1 1.5 1.5v3H3.5v-3A1.5 1.5 0 0 1 5 11.5z"/>
  <path d="M10.5 11.5h3a1.5 1.5 0 0 1 1.5 1.5v3H9v-3a1.5 1.5 0 0 1 1.5-1.5z"/>
  <path d="M16 11.5h3a1.5 1.5 0 0 1 1.5 1.5v3H14.5v-3A1.5 1.5 0 0 1 16 11.5z"/>
  <path d="M4 16v3"/>
  <path d="M8 16v3"/>
  <path d="M10.5 16v3"/>
  <path d="M13.5 16v3"/>
  <path d="M16 16v3"/>
  <path d="M20 16v3"/>
</svg>
